<svg width="60" height="60" viewBox="0 0 60 60" fill="none" xmlns="http://www.w3.org/2000/svg">
<path d="M60 60H0L60 0V60Z" fill="#E02E50"/>
<path d="M39.685 32.5894H37.7391V43.1041C37.7391 43.6688 38.1953 44.1191 38.7513 44.1191H42.2724V42.1677H39.6779V32.5894H39.685Z" fill="white"/>
<path d="M42.2796 34.2627H36V36.2141H42.2796V34.2627Z" fill="white"/>
<path d="M45.7919 26V28.2302C47.1034 28.2302 48.0443 29.2381 48.0443 30.539V35.8071C48.0443 37.108 47.1248 38.0873 45.7919 38.0945V40.3247C48.1298 40.3247 50.3822 38.6663 50.3822 35.8285V30.5033C50.3822 27.6869 48.1298 26.0143 45.7919 26.0071V26Z" fill="white"/>
<path d="M45.7919 38.0723V40.3025C47.1034 40.3025 48.0443 41.3103 48.0443 42.6113V47.8794C48.0443 49.1803 47.1248 50.1596 45.7919 50.1667V52.3969C48.1298 52.3969 50.3822 50.7386 50.3822 47.9008V42.5755C50.3822 39.7592 48.1298 38.0866 45.7919 38.0794V38.0723Z" fill="white"/>
<path d="M50.9026 52.4619C51.0879 52.4619 51.2661 52.512 51.4372 52.6049C51.6153 52.6978 51.7508 52.8336 51.8434 53.0123C51.9432 53.191 51.9931 53.3697 51.9931 53.5627C51.9931 53.7557 51.9432 53.9344 51.8506 54.106C51.7579 54.2775 51.6225 54.4133 51.4443 54.5134C51.2732 54.6135 51.0879 54.6564 50.9026 54.6564C50.7172 54.6564 50.5319 54.6063 50.3609 54.5134C50.1898 54.4205 50.0544 54.2847 49.9546 54.106C49.8548 53.9344 49.812 53.7486 49.812 53.5627C49.812 53.3769 49.8619 53.191 49.9617 53.0123C50.0615 52.8336 50.1969 52.6978 50.3751 52.6049C50.5533 52.512 50.7315 52.4619 50.9168 52.4619H50.9026ZM50.9026 52.6406C50.7458 52.6406 50.5961 52.6835 50.4535 52.7621C50.311 52.8408 50.1969 52.9551 50.1114 53.0981C50.0258 53.241 49.9902 53.3983 49.9902 53.5556C49.9902 53.7128 50.033 53.8629 50.1114 54.013C50.1898 54.1631 50.3038 54.2704 50.4535 54.349C50.5961 54.4276 50.7529 54.4705 50.9097 54.4705C51.0665 54.4705 51.2162 54.4276 51.3659 54.349C51.5084 54.2704 51.6225 54.156 51.7009 54.013C51.7793 53.8701 51.822 53.7128 51.822 53.5556C51.822 53.3983 51.7793 53.241 51.7009 53.0981C51.6153 52.948 51.5084 52.8408 51.3587 52.7621C51.2091 52.6835 51.0594 52.6406 50.9097 52.6406H50.9026ZM50.425 54.1703V52.9909H50.8313C50.9667 52.9909 51.0665 53.0052 51.1307 53.0266C51.1948 53.0481 51.2447 53.0838 51.2803 53.141C51.316 53.1982 51.3374 53.2553 51.3374 53.3125C51.3374 53.3983 51.3088 53.4769 51.2447 53.5413C51.1805 53.6056 51.1021 53.6413 51.0024 53.6485C51.0451 53.6628 51.0808 53.6842 51.1021 53.7128C51.152 53.7629 51.2091 53.8343 51.2732 53.9487L51.4158 54.1774H51.1806L51.0736 53.9916C50.9881 53.8415 50.9239 53.7557 50.8741 53.72C50.8384 53.6914 50.7885 53.6771 50.7244 53.6771H50.6103V54.1774H50.4179L50.425 54.1703ZM50.6175 53.5055H50.8455C50.9596 53.5055 51.0309 53.4912 51.0736 53.4555C51.1164 53.4197 51.1307 53.3769 51.1307 53.3268C51.1307 53.2911 51.1235 53.2625 51.1021 53.2339C51.0808 53.2053 51.0594 53.1839 51.0237 53.1696C50.9881 53.1553 50.9239 53.1481 50.8313 53.1481H50.6175V53.5055Z" fill="white"/>
</svg>
