<svg width="77" height="72" viewBox="0 0 77 72" fill="none" xmlns="http://www.w3.org/2000/svg">
<path fill-rule="evenodd" clip-rule="evenodd" d="M76.7389 10.6767C76.7389 4.78916 71.9497 0 66.0622 0C60.1747 0 55.3855 4.78933 55.3855 10.6767C55.3855 15.2071 62.1505 25.4494 66.0622 30.8311C69.9739 25.4492 76.7389 15.2069 76.7389 10.6767ZM66.0619 7.11784C68.0238 7.11784 69.6208 8.71484 69.6208 10.6767C69.6208 12.6387 68.0238 14.2357 66.0619 14.2355C64.1001 14.2355 62.5031 12.6385 62.5031 10.6767C62.5031 8.71484 64.1001 7.11784 66.0619 7.11784Z" fill="#68E51B"/>
<path d="M42.6356 52.289C41.7145 51.931 40.6892 52.3881 40.3331 53.3056C39.5355 55.3665 38.5381 57.7698 37.193 59.9715C36.6803 60.8108 36.9462 61.9057 37.7839 62.4183C38.0741 62.5957 38.3938 62.6791 38.7101 62.6791C39.3096 62.6791 39.8952 62.3766 40.2307 61.8276C41.7217 59.3843 42.7972 56.7985 43.6522 54.5916C44.0067 53.6756 43.5514 52.6451 42.6356 52.289Z" fill="#68E51B"/>
<path d="M32.6019 65.2746C30.8189 66.6874 28.7928 67.7509 26.4051 68.5276C25.4702 68.8317 24.9592 69.8362 25.2634 70.7711C25.5084 71.5218 26.2052 71.9997 26.956 71.9997C27.1385 71.9997 27.3243 71.9718 27.5068 71.9128C30.2646 71.0161 32.7217 69.7216 34.8123 68.0653C35.5822 67.4536 35.7125 66.3346 35.1026 65.5647C34.4874 64.7968 33.37 64.6595 32.6019 65.2746Z" fill="#68E51B"/>
<path d="M48.796 39.4417C45.8592 41.1082 44.2275 44.0015 43.2543 46.0312C42.8286 46.9175 43.2021 47.981 44.0884 48.4049C44.337 48.5249 44.5994 48.5804 44.8565 48.5804C45.5203 48.5804 46.1563 48.2086 46.4621 47.5708C47.6976 44.9937 48.9593 43.4419 50.5545 42.5347C51.4078 42.05 51.7084 40.9638 51.2218 40.1088C50.7388 39.254 49.6561 38.9534 48.796 39.4417Z" fill="#68E51B"/>
<path d="M62.3747 35.5125C61.7892 36.3779 60.59 37.5682 56.9633 37.8932C55.9849 37.9818 55.262 38.8454 55.3506 39.8255C55.434 40.75 56.2108 41.445 57.1214 41.445C57.1753 41.445 57.2292 41.4434 57.2831 41.438C61.1357 41.0922 63.7648 39.8063 65.322 37.5072C65.8728 36.6939 65.6591 35.587 64.8459 35.036C64.0378 34.489 62.9272 34.6992 62.3747 35.5125Z" fill="#68E51B"/>
<path fill-rule="evenodd" clip-rule="evenodd" d="M0 38.1471C0 50.346 13.5909 65.1586 17.7945 69.4473C21.9982 65.1584 35.5891 50.346 35.5891 38.1471C35.5891 28.1689 27.7726 20.3525 17.7945 20.3525C7.81651 20.3525 0 28.1689 0 38.1471ZM25.3017 38.2026C25.3017 42.3487 21.9407 45.7097 17.7946 45.7097C13.6486 45.7097 10.2876 42.3487 10.2876 38.2026C10.2876 34.0566 13.6486 30.6956 17.7946 30.6956C21.9407 30.6956 25.3017 34.0566 25.3017 38.2026Z" fill="#68E51B"/>
</svg>
