<svg width="23" height="23" viewBox="0 0 23 23" fill="none" xmlns="http://www.w3.org/2000/svg">
<path d="M18.1408 11.5C18.1408 15.1675 15.1677 18.1406 11.5002 18.1406C7.83267 18.1406 4.85956 15.1675 4.85956 11.5C4.85956 7.83248 7.83267 4.85938 11.5002 4.85938C15.1677 4.85938 18.1408 7.83248 18.1408 11.5ZM11.5002 19.625C15.9875 19.625 19.6252 15.9873 19.6252 11.5C19.6252 7.01269 15.9875 3.375 11.5002 3.375C7.01287 3.375 3.37518 7.01269 3.37518 11.5C3.37518 15.9873 7.01287 19.625 11.5002 19.625Z" fill="black" stroke="black" stroke-width="0.5"/>
<path fill-rule="evenodd" clip-rule="evenodd" d="M11.5 11.8281C11.6812 11.8281 11.8281 11.6812 11.8281 11.5C11.8281 11.3188 11.6812 11.1719 11.5 11.1719C11.3188 11.1719 11.1718 11.3188 11.1718 11.5C11.1718 11.6812 11.3188 11.8281 11.5 11.8281ZM11.5 12.8125C12.2248 12.8125 12.8125 12.2249 12.8125 11.5C12.8125 10.7751 12.2248 10.1875 11.5 10.1875C10.7751 10.1875 10.1875 10.7751 10.1875 11.5C10.1875 12.2249 10.7751 12.8125 11.5 12.8125Z" fill="black" stroke="black"/>
<path fill-rule="evenodd" clip-rule="evenodd" d="M11.0078 6.90625V1H11.9922V6.90625H11.0078Z" fill="black" stroke="black" stroke-width="0.8"/>
<path fill-rule="evenodd" clip-rule="evenodd" d="M11.0078 22V16.0938H11.9922V22H11.0078Z" fill="black" stroke="black" stroke-width="0.8"/>
<path fill-rule="evenodd" clip-rule="evenodd" d="M22.0001 11.9922L16.0939 11.9922L16.0939 11.0078L22.0001 11.0078L22.0001 11.9922Z" fill="black" stroke="black" stroke-width="0.8"/>
<path fill-rule="evenodd" clip-rule="evenodd" d="M6.90625 11.9922L1 11.9922L1 11.0078L6.90625 11.0078L6.90625 11.9922Z" fill="black" stroke="black" stroke-width="0.8"/>
</svg>
