<svg width="51" height="28" viewBox="0 0 51 28" fill="none" xmlns="http://www.w3.org/2000/svg">
<path d="M12.5487 17.7135C11.6125 17.7135 10.7727 17.4995 10.0224 17.0784C9.2721 16.6504 8.68701 16.0706 8.25334 15.325C7.81968 14.5795 7.60629 13.7373 7.60629 12.7847C7.60629 11.8942 7.79903 11.0796 8.19139 10.341C8.58375 9.59548 9.13443 9.00872 9.84344 8.56692C10.5524 8.13203 11.3785 7.91113 12.3146 7.91113C13.2508 7.91113 14.0562 8.11822 14.7376 8.53241C15.4191 8.94659 15.9422 9.50574 16.3139 10.2099C16.6857 10.914 16.8715 11.7009 16.8715 12.5638V13.3231H9.0656L9.40978 12.5638C9.36847 13.2265 9.47861 13.8133 9.7333 14.3379C9.98799 14.8556 10.3528 15.2767 10.8347 15.5873C11.3165 15.898 11.881 16.0568 12.528 16.0568C13.1131 16.0568 13.6363 15.9325 14.1112 15.6771C14.5862 15.4217 14.9648 15.042 15.2401 14.5312L16.6857 15.2767C16.2795 16.0775 15.7151 16.6849 14.9923 17.106C14.2695 17.5271 13.4573 17.7342 12.5418 17.7342L12.5487 17.7135ZM9.51303 12.0944H14.9992C14.9717 11.5974 14.8409 11.1625 14.6068 10.7828C14.3728 10.4031 14.0562 10.1132 13.6569 9.90612C13.2577 9.70593 12.8034 9.60239 12.3009 9.60239C11.7984 9.60239 11.3234 9.71283 10.9241 9.92683C10.5249 10.1408 10.2083 10.4446 9.97422 10.8242C9.74018 11.2039 9.58186 11.6319 9.50614 12.1013L9.51303 12.0944Z" fill="white"/>
<path d="M38.0452 17.7135C37.1091 17.7135 36.2693 17.4995 35.519 17.0784C34.7687 16.6504 34.1836 16.0706 33.7499 15.325C33.3162 14.5795 33.1028 13.7373 33.1028 12.7847C33.1028 11.8942 33.3025 11.0796 33.6948 10.341C34.0872 9.59548 34.6379 9.00872 35.3469 8.56692C36.0559 8.13203 36.8819 7.91113 37.8181 7.91113C38.7542 7.91113 39.5596 8.11822 40.2411 8.53241C40.9156 8.94659 41.4457 9.50574 41.8174 10.2099C42.1891 10.914 42.3749 11.7009 42.3749 12.5638V13.3231H34.569L34.9132 12.5638C34.8719 13.2265 34.982 13.8133 35.2367 14.3379C35.4914 14.8625 35.8563 15.2767 36.3381 15.5873C36.8199 15.898 37.3844 16.0568 38.0314 16.0568C38.6165 16.0568 39.1397 15.9325 39.6147 15.6771C40.0896 15.4217 40.4682 15.042 40.7436 14.5312L42.1891 15.2767C41.783 16.0775 41.2185 16.6849 40.4957 17.106C39.773 17.5271 38.9607 17.7342 38.0452 17.7342V17.7135ZM35.0027 12.0944H40.4889C40.4613 11.5974 40.3374 11.1625 40.0965 10.7828C39.8625 10.4031 39.5458 10.1132 39.1466 9.90612C38.7473 9.70593 38.293 9.60239 37.7905 9.60239C37.288 9.60239 36.8131 9.71283 36.4138 9.92683C36.0146 10.1408 35.6979 10.4446 35.4639 10.8242C35.2299 11.2039 35.0715 11.6319 34.9958 12.1013L35.0027 12.0944Z" fill="white"/>
<path d="M3.55878 6.36475H1.67958V16.5192C1.67958 17.0645 2.12013 17.4994 2.65704 17.4994H6.0575V15.6149H3.5519V6.36475H3.55878Z" fill="white"/>
<path d="M27.9884 17.4993H26.1092V8.96022C26.1092 8.42178 26.5429 7.97998 27.0867 7.97998H31.5816V9.86452H27.9884V17.4993Z" fill="white"/>
<path d="M20.6368 17.4993H18.7576V8.96022C18.7576 8.42178 19.1913 7.97998 19.7351 7.97998H24.23V9.86452H20.6368V17.4993Z" fill="white"/>
<path d="M6.06438 7.97998H0V9.86452H6.06438V7.97998Z" fill="white"/>
<path d="M45.0045 0V2.15376C46.271 2.15376 47.1797 3.12709 47.1797 4.38345V9.47102C47.1797 10.7274 46.2917 11.6731 45.0045 11.68V13.8338C47.2623 13.8338 49.4374 12.2322 49.4374 9.49172V4.34894C49.4374 1.62913 47.2623 0.0138061 45.0045 0.00690307V0Z" fill="white"/>
<path d="M45.0045 11.6592V13.8129C46.271 13.8129 47.1797 14.7863 47.1797 16.0426V21.1302C47.1797 22.3866 46.2917 23.3323 45.0045 23.3392V25.4929C47.2623 25.4929 49.4374 23.8914 49.4374 21.1509V16.0081C49.4374 13.2883 47.2623 11.673 45.0045 11.6661V11.6592Z" fill="white"/>
<path d="M49.9399 25.5552C50.1189 25.5552 50.291 25.6035 50.4562 25.6932C50.6283 25.783 50.7591 25.9141 50.8486 26.0867C50.9449 26.2593 50.9931 26.4319 50.9931 26.6182C50.9931 26.8046 50.9449 26.9772 50.8554 27.1429C50.766 27.3086 50.6352 27.4397 50.4631 27.5364C50.2979 27.633 50.1189 27.6744 49.9399 27.6744C49.761 27.6744 49.582 27.6261 49.4168 27.5364C49.2516 27.4466 49.1208 27.3155 49.0244 27.1429C48.9281 26.9772 48.8867 26.7977 48.8867 26.6182C48.8867 26.4388 48.9349 26.2593 49.0313 26.0867C49.1277 25.9141 49.2585 25.783 49.4305 25.6932C49.6026 25.6035 49.7747 25.5552 49.9537 25.5552H49.9399ZM49.9399 25.7278C49.7885 25.7278 49.6439 25.7692 49.5063 25.8451C49.3686 25.921 49.2585 26.0315 49.1759 26.1695C49.0933 26.3076 49.0588 26.4595 49.0588 26.6113C49.0588 26.7632 49.1001 26.9082 49.1759 27.0531C49.2516 27.1981 49.3617 27.3017 49.5063 27.3776C49.6439 27.4535 49.7954 27.4949 49.9468 27.4949C50.0982 27.4949 50.2428 27.4535 50.3874 27.3776C50.525 27.3017 50.6352 27.1912 50.7109 27.0531C50.7866 26.9151 50.8279 26.7632 50.8279 26.6113C50.8279 26.4595 50.7866 26.3076 50.7109 26.1695C50.6283 26.0246 50.525 25.921 50.3805 25.8451C50.2359 25.7692 50.0914 25.7278 49.9468 25.7278H49.9399ZM49.4787 27.205V26.066H49.8711C50.0019 26.066 50.0983 26.0798 50.1602 26.1005C50.2222 26.1212 50.2703 26.1557 50.3048 26.211C50.3392 26.2662 50.3598 26.3214 50.3598 26.3766C50.3598 26.4595 50.3323 26.5354 50.2703 26.5975C50.2084 26.6597 50.1327 26.6942 50.0363 26.7011C50.0776 26.7149 50.112 26.7356 50.1327 26.7632C50.1809 26.8115 50.2359 26.8806 50.2979 26.991L50.4355 27.2119H50.2084L50.1051 27.0324C50.0225 26.8875 49.9606 26.8046 49.9124 26.7701C49.878 26.7425 49.8298 26.7287 49.7678 26.7287H49.6577V27.2119H49.4719L49.4787 27.205ZM49.6646 26.563H49.8849C49.995 26.563 50.0638 26.5492 50.1051 26.5147C50.1464 26.4802 50.1602 26.4388 50.1602 26.3904C50.1602 26.3559 50.1533 26.3283 50.1327 26.3007C50.112 26.2731 50.0914 26.2524 50.057 26.2386C50.0225 26.2248 49.9606 26.2179 49.8711 26.2179H49.6646V26.563Z" fill="white"/>
</svg>
